<svg width="163" height="163" viewBox="0 0 163 163" fill="none" xmlns="http://www.w3.org/2000/svg">
<circle opacity="0.12" cx="81.5" cy="81.5" r="81.5" fill="#FFBB38"/>
<path d="M105.485 41.7827H55.6211C47.4702 41.7922 40.8649 48.3975 40.8555 56.5483V106.412C40.8649 114.563 47.4702 121.168 55.6211 121.178H105.485C113.636 121.168 120.241 114.563 120.25 106.412V56.5483C120.241 48.3975 113.636 41.7922 105.485 41.7827ZM114.769 56.5483V61.3354H100.885L90.5005 47.2636H105.485C110.61 47.2693 114.764 51.4228 114.769 56.5483ZM83.6887 47.2636L94.073 61.3354H77.4171L67.0328 47.2636H83.6887ZM46.3364 56.5483C46.3421 51.423 50.4956 47.2695 55.6211 47.2636H60.2212L70.6054 61.3354H46.3364V56.5483ZM105.485 115.697H55.6211C50.4957 115.691 46.3422 111.537 46.3364 106.412V66.8164H114.769V106.412C114.764 111.537 110.61 115.691 105.485 115.697Z" fill="#FFBB38"/>
<path d="M95.1763 88.8826L73.4955 76.3652C72.1847 75.6084 70.5087 76.0575 69.752 77.3683C69.5115 77.785 69.3848 78.2574 69.3848 78.7386V103.774C69.3848 105.287 70.6117 106.514 72.1251 106.514C72.6062 106.514 73.0788 106.388 73.4955 106.147L95.1763 93.6294C96.4871 92.8726 96.9362 91.1966 96.1795 89.8859C95.9388 89.469 95.5928 89.1231 95.1763 88.8826ZM74.8656 99.027V83.4851L88.3253 91.2559L74.8656 99.027Z" fill="#FFBB38"/>
<rect x="36.0723" y="37" width="123.557" height="5.17793" transform="rotate(41.6525 36.0723 37)" fill="#FFBB38"/>
</svg>
