<svg width="264" height="285" viewBox="0 0 264 285" fill="none" xmlns="http://www.w3.org/2000/svg">
    <path opacity="0.2" d="M127.546 44.5353L119.63 42.3776C119.651 41.8872 119.665 41.3898 119.665 40.8924C119.665 40.4861 119.658 40.0797 119.637 39.6804L127.602 37.4736C127.715 37.4386 127.785 37.3195 127.764 37.2074L126.584 30.6081C126.57 30.489 126.457 30.4049 126.345 30.4119L118.148 31.0845C117.874 30.2228 117.572 29.3821 117.235 28.5554L123.978 23.7566C124.076 23.6865 124.097 23.5534 124.034 23.4553L120.663 17.6546C120.606 17.5495 120.473 17.5075 120.368 17.5566L112.852 21.0033C112.304 20.3028 111.735 19.6232 111.138 18.9717L115.865 12.1132C115.935 12.0151 115.907 11.875 115.816 11.8049L110.66 7.50344C110.576 7.42638 110.435 7.42638 110.351 7.51044L104.423 13.3672C103.685 12.9048 102.927 12.4634 102.147 12.0571L104.254 3.93055C104.282 3.81846 104.219 3.69236 104.1 3.65733L97.7781 1.37349C97.6657 1.33145 97.5392 1.38049 97.4901 1.48558L93.8867 9.08672C93.0508 8.91157 92.2009 8.76446 91.344 8.65237L90.5292 0.203543C90.5152 0.0844465 90.4098 -0.0066271 90.2974 0.000378557L83.5754 0.0143899C83.456 0.00738421 83.3506 0.0984578 83.3436 0.217554L82.5569 8.68039C81.714 8.79948 80.8851 8.9466 80.0633 9.12174C80.0633 9.11474 80.0633 9.11474 80.0633 9.10773L76.3687 1.38049C76.3195 1.27541 76.186 1.22637 76.0807 1.2684L69.766 3.57326C69.6536 3.60829 69.5834 3.72739 69.6185 3.84648L71.796 12.1272C71.796 12.1342 71.803 12.1412 71.803 12.1482C71.0585 12.5405 70.335 12.9608 69.6255 13.4092C69.6185 13.3812 69.5974 13.3532 69.5764 13.3251L63.4514 7.32129C63.3671 7.23722 63.2266 7.23722 63.1423 7.31428L58.0007 11.6298C57.9094 11.6998 57.8883 11.8399 57.9515 11.938L62.8403 18.9787C62.8613 19.0067 62.8824 19.0277 62.9105 19.0418C62.3416 19.6653 61.8007 20.3168 61.2809 20.9823C61.2669 20.9263 61.2247 20.8842 61.1685 20.8562L53.3578 17.3044C53.2524 17.2553 53.1189 17.3044 53.0628 17.4094L49.7123 23.2241C49.649 23.3222 49.6771 23.4623 49.7685 23.5254L56.7715 28.4714C56.8136 28.4994 56.8558 28.5064 56.8979 28.5064C56.5678 29.298 56.2728 30.1037 56.0129 30.9304C55.9848 30.8673 55.9216 30.8183 55.8443 30.8113L47.289 30.1387C47.1695 30.1317 47.0642 30.2158 47.0501 30.3349L45.8912 36.9412C45.8631 37.0533 45.9403 37.1724 46.0527 37.2074L54.3341 39.4703C54.3903 39.4843 54.4465 39.4773 54.4886 39.4492C54.4676 39.9256 54.4535 40.402 54.4535 40.8854C54.4535 41.2777 54.4605 41.663 54.4746 42.0483C54.4254 41.9853 54.3411 41.9573 54.2639 41.9783L45.9895 44.2691C45.8771 44.2971 45.8069 44.4233 45.8279 44.5353L47.008 51.1347C47.022 51.2538 47.1344 51.3378 47.2468 51.3308L55.8021 50.6303C55.8513 50.6233 55.8864 50.6022 55.9216 50.5742C56.1744 51.3939 56.4694 52.1995 56.7855 52.9842C56.7293 52.9632 56.6591 52.9702 56.6029 53.0122L49.6139 57.9862C49.5156 58.0563 49.4945 58.1894 49.5577 58.2874L52.9293 64.0881C52.9855 64.1932 53.1189 64.2353 53.2243 64.1862L61.021 60.6063C61.0491 60.5923 61.0772 60.5713 61.0913 60.5503C61.604 61.2228 62.1379 61.8673 62.6998 62.4978C62.6576 62.5119 62.6155 62.5329 62.5874 62.5749L57.7267 69.6296C57.6565 69.7277 57.6846 69.8678 57.7759 69.9379L62.9316 74.2393C63.0159 74.3164 63.1564 74.3164 63.2407 74.2323L69.3446 68.2075C69.3516 68.2005 69.3516 68.1935 69.3586 68.1935C70.061 68.6488 70.7845 69.0762 71.522 69.4755C71.515 69.4895 71.501 69.5035 71.501 69.5245L69.3516 77.8122C69.3235 77.9243 69.3867 78.0504 69.5061 78.0854L75.8278 80.3693C75.9402 80.4113 76.0666 80.3623 76.1158 80.2572L79.7543 72.579C80.5761 72.7681 81.4119 72.9223 82.2548 73.0484L83.0767 81.5392C83.0907 81.6583 83.1961 81.7494 83.3084 81.7424L90.0305 81.7284C90.1499 81.7354 90.2553 81.6443 90.2623 81.5252L91.042 73.1605C91.9059 73.0554 92.7629 72.9153 93.6058 72.7471L97.2442 80.3623C97.2934 80.4674 97.4268 80.5164 97.5322 80.4744L103.847 78.1695C103.959 78.1345 104.029 78.0154 103.994 77.8963L101.88 69.8538C102.667 69.4545 103.432 69.0201 104.177 68.5577L110.154 74.4145C110.239 74.4985 110.379 74.4985 110.464 74.4215L115.605 70.106C115.696 70.0359 115.718 69.8958 115.654 69.7977L110.948 63.0163C111.552 62.3647 112.135 61.6922 112.69 60.9916L120.255 64.4314C120.36 64.4805 120.494 64.4314 120.55 64.3263L123.901 58.5116C123.964 58.4136 123.936 58.2734 123.844 58.2104L117.136 53.4746C117.481 52.6479 117.797 51.8072 118.078 50.9455L126.317 51.59C126.436 51.597 126.542 51.513 126.556 51.3939L127.715 44.7875C127.729 44.6825 127.658 44.5634 127.546 44.5353ZM87.0523 15.3077C90.459 15.3077 93.7041 15.9663 96.6753 17.1712L93.3318 22.7618C91.3651 22.0822 89.2508 21.7109 87.0523 21.7109C84.3831 21.7109 81.8474 22.2574 79.5365 23.2381L76.1369 17.7387C79.4452 16.1764 83.1469 15.3077 87.0523 15.3077ZM70.2507 21.5638L73.6855 27.1193C70.8056 29.9005 68.7967 33.5645 68.1013 37.6768L61.604 37.7048C62.4048 31.2806 65.5867 25.5991 70.2507 21.5638ZM70.7283 60.6133C65.966 56.6902 62.6506 51.0786 61.6953 44.7035L68.2067 44.6825C69.0215 48.7317 71.1287 52.3326 74.0718 55.0228L70.7283 60.6133ZM87.0523 66.4701C83.3646 66.4701 79.8666 65.6994 76.6988 64.2983L80.0212 58.7358C82.1986 59.5905 84.5728 60.0669 87.0523 60.0669C89.2719 60.0669 91.4142 59.6886 93.4021 58.995L96.8368 64.5435C93.8165 65.7835 90.5152 66.4701 87.0523 66.4701ZM98.2276 44.115C97.6657 45.8104 96.7244 47.3376 95.5023 48.5986C93.8656 50.287 91.7233 51.485 89.3281 51.9543C88.5906 52.0944 87.832 52.1715 87.0593 52.1715C85.9776 52.1715 84.924 52.0244 83.9336 51.7512C81.5946 51.1066 79.5435 49.7616 78.0334 47.9541C77.1132 46.8612 76.3897 45.5862 75.9191 44.2061C75.5187 43.0291 75.301 41.7611 75.301 40.444C75.301 39.3161 75.4625 38.2303 75.7576 37.2004C76.179 35.7502 76.8674 34.4192 77.7735 33.2562C79.2275 31.3857 81.2293 29.9706 83.5402 29.249C84.65 28.8987 85.8371 28.7096 87.0663 28.7096C87.8601 28.7096 88.6397 28.7866 89.3913 28.9407C91.7865 29.4241 93.9148 30.6291 95.5444 32.3245C96.8298 33.6626 97.8062 35.3019 98.347 37.1234C98.6631 38.1742 98.8317 39.2951 98.8317 40.451C98.8176 41.7261 98.6069 42.9591 98.2276 44.115ZM102.892 61.0056L99.4849 55.4992C102.751 52.732 105.083 48.8929 105.926 44.5353L112.437 44.5143C111.496 51.1837 107.963 57.0264 102.892 61.0056ZM105.989 37.5367C105.188 33.0321 102.807 29.0669 99.4357 26.2296L102.758 20.6671C107.963 24.6883 111.573 30.6711 112.479 37.5087L105.989 37.5367Z" fill="#FFBB38"/>
    <path d="M218.569 258.065H113.088C102.995 258.065 94.7412 249.834 94.7412 239.767V49.2827C94.7412 39.2155 102.995 30.9839 113.088 30.9839H218.569C228.655 30.9839 236.916 39.2155 236.916 49.2827V239.767C236.916 249.827 228.662 258.065 218.569 258.065Z" fill="#1054C6"/>
    <path d="M226.829 258.065H121.349C111.255 258.065 103.002 249.834 103.002 239.767V49.2827C103.002 39.2155 111.255 30.9839 121.349 30.9839H226.829C236.923 30.9839 245.176 39.2155 245.176 49.2827V239.767C245.169 249.827 236.916 258.065 226.829 258.065Z" fill="#2876F9"/>
    <path d="M223.935 226.575H124.53C122.402 226.575 120.674 224.852 120.674 222.729V84.269C120.674 82.1462 122.402 80.4229 124.53 80.4229H223.935C226.063 80.4229 227.791 82.1462 227.791 84.269V222.722C227.791 224.852 226.063 226.575 223.935 226.575Z" fill="#D1EFFC"/>
    <path d="M212.732 205.733H134.259C133.283 205.733 132.489 204.934 132.489 203.968C132.489 202.994 133.29 202.202 134.259 202.202H212.725C213.702 202.202 214.495 203.001 214.495 203.968C214.502 204.941 213.709 205.733 212.732 205.733Z" fill="#7AB0F6"/>
    <path d="M212.732 213.25H134.259C133.283 213.25 132.489 212.451 132.489 211.484C132.489 210.51 133.29 209.719 134.259 209.719H212.725C213.702 209.719 214.495 210.517 214.495 211.484C214.502 212.451 213.709 213.25 212.732 213.25Z" fill="#7AB0F6"/>
    <path d="M116.699 41.4712L103.634 90.4127H126.378L135.312 41.4712H116.699Z" fill="#FFBB38"/>
    <path d="M135.313 41.4712L126.378 90.4127L149.129 90.1675L154.179 41.4712H135.313Z" fill="white"/>
    <path d="M154.179 41.4712L149.129 90.1675H171.873L172.006 41.4712H154.179Z" fill="#FFBB38"/>
    <path d="M228.34 41.4712H211.025L217.375 90.1675H240.119L228.34 41.4712Z" fill="white"/>
    <path d="M172.007 41.4712L171.873 90.1675H194.624L191.4 41.4712H172.007Z" fill="white"/>
    <path d="M191.398 41.4712L194.622 90.1675H217.373L211.024 41.4712H191.398Z" fill="#FFBB38"/>
    <path d="M115.006 101.755C121.286 101.755 126.378 96.6757 126.378 90.4126H103.627C103.634 96.6757 108.726 101.755 115.006 101.755Z" fill="#E9A522"/>
    <path d="M137.756 101.755C144.035 101.755 149.128 96.4307 149.128 90.1606L126.377 90.4058C126.377 96.6759 131.469 101.755 137.756 101.755Z" fill="#B9DDFF"/>
    <path d="M160.57 101.51C166.85 101.51 171.942 96.431 171.942 90.168H149.191C149.191 96.431 154.284 101.51 160.57 101.51Z" fill="#E9A522"/>
    <path d="M183.252 101.51C189.532 101.51 194.624 96.431 194.624 90.168H171.873C171.873 96.431 176.966 101.51 183.252 101.51Z" fill="#B9DDFF"/>
    <path d="M205.995 101.51C212.275 101.51 217.367 96.431 217.367 90.168H194.616C194.623 96.431 199.716 101.51 205.995 101.51Z" fill="#E9A522"/>
    <path d="M228.747 101.51C235.027 101.51 240.119 96.431 240.119 90.168H217.368C217.375 96.431 222.468 101.51 228.747 101.51Z" fill="#B9DDFF"/>
    <path d="M75.8255 52.6104C35.5143 54.656 13.9434 90.9033 13.9434 90.9033L36.7014 124.04C47.968 99.6253 91.0748 89.8735 91.0748 89.8735L102.152 60.6809L75.8255 52.6104ZM89.4452 71.5396C86.9447 72.1982 84.3879 70.713 83.7276 68.219C83.0674 65.7249 84.5565 63.1749 87.057 62.5164C89.5576 61.8578 92.1144 63.343 92.7746 65.837C93.4279 68.3311 91.9388 70.8811 89.4452 71.5396Z" fill="#FE799A"/>
    <path d="M89.2556 56.1618C88.2371 57.7591 87.3802 59.5806 87.0781 61.6193C86.9236 62.6351 86.9025 63.6859 87.0571 64.7228C87.2186 65.7806 87.4715 66.7054 87.921 67.7142C88.9466 70.005 90.7517 70.6846 90.9203 70.7616C90.8079 70.8877 92.7957 69.7178 92.866 67.455C92.6201 67.3289 91.7 66.6563 91.4471 66.0959C91.1943 65.5424 90.9906 64.8138 90.8922 64.1763C90.7869 63.5178 90.7939 62.8452 90.8922 62.1657C91.0678 60.8066 91.6227 59.4265 92.4094 58.1304C93.9898 55.5033 96.357 53.2475 98.998 51.3139C104.357 47.4118 110.518 44.5465 117.204 42.8301C110.286 42.8791 103.311 45.0439 97.2701 48.7429C94.2146 50.5783 91.3628 53.0023 89.2556 56.1618Z" fill="#B9DDFF"/>
    <path d="M112.667 45.4155C111.283 46.5084 110.054 47.8044 108.944 49.1845C107.862 50.5857 106.872 52.0709 106.043 53.6471C105.818 54.0394 105.621 54.4318 105.439 54.775C105.249 55.1323 105.052 55.4896 104.842 55.8399C104.427 56.5405 102.145 60.5197 102.102 60.6878C101.885 61.6126 99.5948 67.2451 99.5386 67.5884C99.5175 67.7075 99.4894 67.8126 99.4473 67.9107C100.817 66.6847 102.018 65.3606 103.107 63.9595C104.217 62.5513 105.207 61.0731 106.092 59.5319C106.535 58.7613 106.956 57.9766 107.349 57.164C107.736 56.3793 108.108 55.4686 108.396 54.74C108.972 53.1918 109.716 51.7136 110.552 50.2844C111.367 48.8412 112.329 47.4751 113.432 46.2141C114.535 44.9531 115.757 43.7621 117.211 42.8374C115.553 43.3698 114.05 44.3366 112.667 45.4155Z" fill="#B9DDFF"/>
    <path d="M167.771 156.707H130.065C127.944 156.707 126.202 154.977 126.202 152.854V115.248C126.202 113.132 127.937 111.395 130.065 111.395H167.771C169.892 111.395 171.634 113.125 171.634 115.248V152.854C171.634 154.977 169.899 156.707 167.771 156.707Z" fill="white"/>
    <path d="M218.225 156.707H180.519C178.398 156.707 176.656 154.977 176.656 152.854V115.248C176.656 113.132 178.391 111.395 180.519 111.395H218.225C220.346 111.395 222.088 113.125 222.088 115.248V152.854C222.081 154.977 220.346 156.707 218.225 156.707Z" fill="white"/>
    <path d="M147.681 188.835C145.855 188.835 144.373 186.748 144.373 184.191C144.373 181.627 145.855 179.546 147.681 179.546H200.06C201.886 179.546 203.368 181.634 203.368 184.191C203.368 186.755 201.886 188.835 200.06 188.835H147.681Z" fill="#FFBB38"/>
    <path d="M164.16 165.828C164.16 167.082 163.142 168.098 161.884 168.098C160.627 168.098 159.608 167.082 159.608 165.828C159.608 164.574 160.627 163.559 161.884 163.559C163.142 163.559 164.16 164.574 164.16 165.828Z" fill="#FE799A"/>
    <path d="M172.976 168.098C174.233 168.098 175.252 167.082 175.252 165.828C175.252 164.575 174.233 163.559 172.976 163.559C171.719 163.559 170.7 164.575 170.7 165.828C170.7 167.082 171.719 168.098 172.976 168.098Z" fill="#FE799A"/>
    <path d="M183.251 168.098C184.508 168.098 185.527 167.082 185.527 165.828C185.527 164.575 184.508 163.559 183.251 163.559C181.995 163.559 180.976 164.575 180.976 165.828C180.976 167.082 181.995 168.098 183.251 168.098Z" fill="#F7456A"/>
    <path d="M134.279 143.74H149.718L157.782 137.519C157.782 137.519 159.011 139.915 159.011 143.74H160.542C160.542 143.74 164.153 132.076 158.625 128.25L145.974 138.745C145.974 138.745 135.621 137.043 134.279 143.74Z" fill="#E962C5"/>
    <path d="M203.502 135.649V127.837H206.558V123.213C206.558 121.532 205.188 120.166 203.502 120.166H200.756C200.756 121.931 199.323 123.368 197.546 123.368C195.776 123.368 194.336 121.938 194.336 120.166H191.758H191.582C189.988 120.166 188.695 121.455 188.695 123.045V127.837H191.702L191.821 135.901L185.45 146.01C188.176 146.921 192.355 147.971 197.525 147.95C202.519 147.929 206.565 146.907 209.248 146.01C207.33 142.549 205.413 139.102 203.502 135.649Z" fill="#FFBB38"/>
    <path d="M205.87 243.591H145.596C144.416 243.591 143.461 242.639 143.461 241.462V240.481C143.461 239.304 144.416 238.351 145.596 238.351H205.87C207.05 238.351 208.005 239.304 208.005 240.481V241.462C208.012 242.639 207.05 243.591 205.87 243.591Z" fill="white"/>
    <path d="M42.6159 100.746C40.881 102.428 39.6588 103.142 38.6122 103.584L37.0739 102C38.0222 101.776 39.6798 100.921 41.3445 99.3102C43.5009 97.2225 43.3605 95.6602 42.5105 94.7915C41.6325 93.8878 40.5017 93.7617 37.699 94.9597C34.3275 96.4098 32.438 96.3468 30.8506 94.7145C29.0594 92.872 29.1788 89.9927 31.9323 87.3235C33.2458 86.0555 34.5663 85.3409 35.1423 85.0957L36.512 86.5038C35.367 87.1694 34.2081 87.919 33.2177 88.8788C31.3703 90.6652 31.56 92.0873 32.2203 92.7669C33.2739 93.8458 33.9903 93.9999 37.0739 92.7109C40.1575 91.4218 42.2366 91.1626 43.9996 92.9701C46.0858 95.0998 45.6292 97.832 42.6159 100.746Z" fill="white"/>
    <path d="M56.5015 89.2777L52.8701 86.5735L47.7495 90.1884L49.0841 94.5179L47.1665 95.87L41.9336 79.2386L44.2375 77.6133L58.4191 87.9186L56.5015 89.2777ZM44.385 80.2404L47.0963 88.451C47.0963 88.451 51.3669 85.4316 51.3529 85.4456L44.385 80.2404Z" fill="white"/>
    <path d="M59.5578 87.5267L52.5127 72.4995L54.6831 71.4907L60.9486 84.8505L67.1439 81.9572L67.9306 83.6315L59.5578 87.5267Z" fill="white"/>
    <path d="M69.3639 83.1901L65.585 67.0351L75.1026 64.8213L75.524 66.6217L68.2682 68.3101L69.5044 73.5924L75.3274 72.2403L75.7418 74.0127L69.9188 75.3648L71.2112 80.8923L78.7973 79.1268L79.2117 80.8993L69.3639 83.1901Z" fill="white"/>
    <path d="M94.4251 172.134L2.28315 170.277C0.997741 170.249 -0.0207511 169.191 0.000321164 167.909L1.19441 108.95C1.22251 107.667 2.28315 106.652 3.56855 106.673L95.7105 108.529C96.9959 108.557 98.0144 109.615 97.9933 110.897L96.7992 169.857C96.7711 171.139 95.7105 172.162 94.4251 172.134Z" fill="#FFBB38"/>
    <path d="M86.6979 166.873L10.5358 165.338C7.30471 165.275 4.7339 162.606 4.80414 159.384L5.64703 117.497C5.71024 114.274 8.38642 111.71 11.6175 111.78L87.7796 113.314C91.0107 113.378 93.5815 116.047 93.5113 119.269L92.6614 161.156C92.5981 164.379 89.929 166.943 86.6979 166.873Z" fill="white"/>
    <path d="M38.0281 122.807L10.4867 122.254C9.68592 122.24 9.04673 121.574 9.06077 120.776L9.13102 117.462C9.14506 116.663 9.81235 116.026 10.6131 116.04L38.1545 116.593C38.9553 116.607 39.5945 117.273 39.5804 118.071L39.5102 121.385C39.4961 122.184 38.8288 122.821 38.0281 122.807Z" fill="#E7EFFE"/>
    <path d="M66.7 148.294L10.9428 147.173C10.3668 147.159 9.90326 146.682 9.9173 146.108L9.96647 143.719C9.98052 143.144 10.4582 142.682 11.0341 142.696L66.7913 143.817C67.3673 143.831 67.8309 144.307 67.8168 144.882L67.7677 147.271C67.7606 147.845 67.276 148.301 66.7 148.294Z" fill="#E7EFFE"/>
    <path d="M66.5389 156.273L10.7817 155.145C10.2057 155.131 9.74212 154.655 9.75617 154.081L9.80534 151.692C9.81939 151.117 10.297 150.655 10.873 150.669L66.6302 151.79C67.2061 151.804 67.6697 152.28 67.6557 152.855L67.6065 155.243C67.5995 155.818 67.1148 156.28 66.5389 156.273Z" fill="#FFBB38"/>
    <path d="M87.2105 167.993L9.65762 166.431C6.34927 166.361 3.71524 163.629 3.77846 160.336L4.66349 116.705C4.72671 113.412 7.47313 110.785 10.7815 110.848L88.3344 112.411C91.6427 112.481 94.2767 115.213 94.2135 118.505L93.3285 162.137C93.2653 165.436 90.5188 168.063 87.2105 167.993ZM10.7534 112.214C8.20363 112.165 6.08938 114.19 6.03319 116.726L5.14815 160.357C5.09899 162.9 7.12895 165.009 9.67869 165.058L87.2316 166.62C89.7813 166.669 91.8956 164.645 91.9518 162.109L92.8368 118.477C92.886 115.934 90.856 113.826 88.3063 113.777L10.7534 112.214Z" fill="#222222"/>
    <path d="M29.0668 138.92L13.389 138.605C11.7173 138.57 10.3757 137.176 10.4108 135.508L10.5302 129.462C10.5654 127.795 11.9631 126.457 13.6349 126.492L29.3126 126.807C30.9844 126.842 32.326 128.236 32.2908 129.904L32.1714 135.95C32.1363 137.617 30.7385 138.955 29.0668 138.92Z" fill="#FAD553"/>
    <path d="M80.9256 132.321C80.75 132.321 80.5814 132.244 80.455 132.104C80.2232 131.837 80.2442 131.438 80.5112 131.207C82.4709 129.49 83.5807 127.186 83.6299 124.72C83.679 122.254 82.6675 119.907 80.7781 118.113C80.5252 117.868 80.5112 117.469 80.757 117.209C81.0028 116.957 81.4032 116.943 81.6631 117.188C83.8125 119.234 84.9714 121.917 84.9082 124.748C84.852 127.578 83.5877 130.212 81.3611 132.167C81.2346 132.272 81.0801 132.328 80.9256 132.321Z" fill="#E7EFFE"/>
    <path d="M79.1141 130.604C78.9384 130.597 78.7699 130.527 78.6434 130.387C78.4116 130.121 78.4327 129.722 78.6996 129.491C80.1536 128.216 80.9754 126.506 81.0176 124.671C81.0527 122.835 80.3011 121.098 78.8963 119.76C78.6434 119.514 78.6294 119.115 78.8752 118.856C79.1211 118.604 79.5214 118.59 79.7813 118.835C81.446 120.418 82.3451 122.499 82.296 124.692C82.2538 126.884 81.2775 128.93 79.5425 130.443C79.4231 130.548 79.2686 130.604 79.1141 130.604Z" fill="#E7EFFE"/>
    <path d="M77.3016 128.881C77.1259 128.874 76.9574 128.804 76.8309 128.664C76.5991 128.398 76.6202 127.998 76.8871 127.76C77.8424 126.926 78.3762 125.805 78.4043 124.607C78.4254 123.409 77.9337 122.268 77.0136 121.399C76.7607 121.154 76.7466 120.754 76.9925 120.495C77.2383 120.243 77.6387 120.229 77.8986 120.474C79.0786 121.595 79.7178 123.073 79.6827 124.635C79.6546 126.191 78.9592 127.641 77.73 128.72C77.6106 128.832 77.4561 128.881 77.3016 128.881Z" fill="#E7EFFE"/>
    <path d="M75.4891 127.158C75.3134 127.151 75.1449 127.081 75.0184 126.941C74.7866 126.674 74.8077 126.275 75.0746 126.037C75.5242 125.645 75.777 125.119 75.7911 124.552C75.8051 123.991 75.5733 123.452 75.1378 123.039C74.885 122.793 74.8709 122.394 75.1168 122.135C75.3626 121.883 75.763 121.869 76.0229 122.114C76.7183 122.772 77.0905 123.648 77.0765 124.573C77.0554 125.497 76.648 126.352 75.9246 126.99C75.7981 127.109 75.6436 127.165 75.4891 127.158Z" fill="#E7EFFE"/>
    <path d="M59.8809 206.608L50.9463 254.52C50.9463 254.52 62.1146 254.52 63.976 254.52L59.8809 206.608Z" fill="#55B4BD"/>
    <path d="M63.9759 254.52H93.3928L90.0423 206.608H59.8809L63.9759 254.52Z" fill="#81CFD0"/>
    <path d="M68.5414 211.716C68.5414 212.612 67.8109 213.341 66.9118 213.341C66.0127 213.341 65.2822 212.612 65.2822 211.716C65.2822 210.819 66.0127 210.09 66.9118 210.09C67.8109 210.09 68.5414 210.819 68.5414 211.716Z" fill="#B2E5FA"/>
    <path d="M85.8988 211.716C85.8988 212.612 85.1683 213.341 84.2692 213.341C83.3701 213.341 82.6396 212.612 82.6396 211.716C82.6396 210.819 83.3701 210.09 84.2692 210.09C85.1683 210.09 85.8988 210.819 85.8988 211.716Z" fill="#B2E5FA"/>
    <path d="M78.4098 196.107C77.1946 194.965 75.9654 194.348 74.9047 194.348C74.8556 194.348 74.8134 194.348 74.7643 194.355C71.0555 194.537 66.8341 201.718 66.7217 211.715C66.7217 211.82 66.806 211.904 66.9043 211.904C67.0097 211.904 67.0869 211.82 67.094 211.722C67.2063 202.208 71.2452 194.902 74.7853 194.726C74.8275 194.726 74.8696 194.726 74.9118 194.726C75.8179 194.726 76.8504 195.21 77.89 196.114H78.4098V196.107Z" fill="#55B4BD"/>
    <path d="M80.3761 198.495H79.9688C81.9566 201.416 83.6494 205.935 84.0849 211.729C84.0919 211.827 84.1762 211.904 84.2675 211.904C84.2745 211.904 84.2745 211.904 84.2815 211.904C84.3869 211.897 84.4642 211.806 84.4501 211.708C84.0287 205.977 82.364 201.48 80.3761 198.495Z" fill="#55B4BD"/>
    <path d="M221.625 237.51L210.513 284.988C210.513 284.988 224.406 284.988 226.724 284.988L221.625 237.51Z" fill="#FFBB38"/>
    <path d="M226.717 284.995H263.299L259.134 237.51H221.625L226.717 284.995Z" fill="#FFD88D"/>
    <path d="M232.393 242.575C232.393 243.465 231.486 244.186 230.37 244.186C229.253 244.186 228.347 243.465 228.347 242.575C228.347 241.685 229.253 240.964 230.37 240.964C231.479 240.964 232.393 241.685 232.393 242.575Z" fill="#F7456A"/>
    <path d="M253.984 242.575C253.984 243.465 253.078 244.186 251.961 244.186C250.845 244.186 249.938 243.465 249.938 242.575C249.938 241.685 250.845 240.964 251.961 240.964C253.071 240.964 253.984 241.685 253.984 242.575Z" fill="#F7456A"/>
    <path d="M244.601 227.099C244.601 227.099 242.67 225.299 240.303 225.362C240.247 225.362 240.19 225.362 240.134 225.369C235.519 225.551 230.272 232.662 230.132 242.575C230.132 242.68 230.23 242.757 230.364 242.764C230.49 242.764 230.595 242.68 230.595 242.582C230.736 233.152 235.758 225.915 240.155 225.74C240.211 225.74 240.261 225.74 240.317 225.74C241.448 225.74 242.733 226.224 244.025 227.113C248.689 231.114 251.19 236.914 251.724 242.596C251.731 242.694 251.836 242.764 251.956 242.764C251.963 242.764 251.97 242.764 251.977 242.764C252.103 242.757 252.201 242.666 252.187 242.568C251.654 236.886 249.251 231.002 244.601 227.099Z" fill="#F96A88"/>
</svg>
