<svg width="208" height="282" viewBox="0 0 208 282" fill="none" xmlns="http://www.w3.org/2000/svg">
    <g clip-path="url(#clip0_3694_7123)">
        <path d="M186.928 11.7111C186.928 14.1987 184.914 16.2045 182.427 16.2045C179.948 16.2045 177.934 14.19 177.934 11.7024C177.934 9.21481 179.948 7.20898 182.435 7.20898C184.914 7.21774 186.928 9.22357 186.928 11.7111Z" fill="white"/>
        <path d="M90.0348 268.509C90.0348 270.997 88.0204 273.002 85.533 273.002C83.0457 273.002 81.04 270.988 81.04 268.5C81.04 266.013 83.0544 264.007 85.5418 264.007C88.0204 264.007 90.0348 266.021 90.0348 268.509Z" fill="white"/>
        <path d="M179.054 276.83C175.603 276.83 172.801 274.019 172.801 270.567C172.801 267.116 175.612 264.313 179.063 264.313C180.736 264.313 182.303 264.97 183.486 266.144C184.668 267.327 185.316 268.894 185.316 270.567C185.308 274.019 182.505 276.83 179.054 276.83ZM179.054 265.408C176.208 265.408 173.896 267.721 173.896 270.567C173.896 273.414 176.208 275.727 179.054 275.727C181.901 275.727 184.213 273.414 184.213 270.567C184.213 269.192 183.679 267.896 182.706 266.915C181.725 265.951 180.438 265.408 179.054 265.408Z" fill="white"/>
        <path d="M87.2939 109.147H7.55869C5.57932 109.147 3.97656 107.544 3.97656 105.564V57.6958C3.97656 55.7162 5.57932 54.1221 7.54993 54.1221H87.2852C89.2645 54.1221 90.8585 55.725 90.8585 57.6958V105.564C90.8673 107.544 89.2645 109.147 87.2939 109.147Z" fill="#9EB9EE"/>
        <path d="M85.6205 54.1138L57.9619 109.147H30.4521L58.1107 54.1138H85.6205Z" fill="url(#paint0_linear_3694_7123)"/>
        <path d="M45.009 54.1221L17.5519 109.147H8.2068C5.86835 109.147 3.97656 107.246 3.97656 104.916V85.6722L21.2391 54.1221H45.009Z" fill="url(#paint1_linear_3694_7123)"/>
        <path d="M23.946 84.5687H15.0739C14.1105 84.5687 13.3223 83.7804 13.3223 82.8169V75.0126C13.3223 74.0491 14.1105 73.2607 15.0739 73.2607H23.946C24.9094 73.2607 25.6977 74.0491 25.6977 75.0126V82.8169C25.6977 83.7891 24.9182 84.5687 23.946 84.5687Z" fill="#FFE7C9"/>
        <path d="M17.1757 73.2607H16.8867V84.5687H17.1757V73.2607Z" fill="#E8CB83"/>
        <path d="M22.1845 84.569H21.8955V75.9238H25.6966V76.2129H22.1845V84.569Z" fill="#E8CB83"/>
        <path d="M17.027 75.9238H13.3223V76.2129H17.027V75.9238Z" fill="#E8CB83"/>
        <path d="M17.027 78.5952H13.3223V78.893H17.027V78.5952Z" fill="#E8CB83"/>
        <path d="M17.027 81.1616H13.3223V81.4507H17.027V81.1616Z" fill="#E8CB83"/>
        <path d="M25.6971 78.5952H22.0361V78.893H25.6971V78.5952Z" fill="#E8CB83"/>
        <path d="M25.6971 81.1616H22.0361V81.4507H25.6971V81.1616Z" fill="#E8CB83"/>
        <path d="M83.3799 74.8639C83.2924 74.8639 83.2048 74.8376 83.1347 74.7763C82.9771 74.6449 82.9508 74.4085 83.0822 74.242C83.0909 74.2333 83.3186 73.9355 83.3186 73.4012C83.3186 72.9019 83.0822 72.5866 83.0822 72.5866C82.9508 72.4201 82.9858 72.1837 83.1435 72.0523C83.3099 71.9209 83.5464 71.9559 83.6777 72.1223C83.7303 72.1749 84.0806 72.6566 84.0806 73.4099C84.0806 74.2158 83.7128 74.68 83.669 74.7325C83.5989 74.8201 83.485 74.8639 83.3799 74.8639Z" fill="white"/>
        <path d="M84.6583 75.3634C84.5882 75.3634 84.5181 75.3459 84.4568 75.3021C84.2816 75.1882 84.2291 74.9605 84.3342 74.7853C84.3342 74.7853 84.7196 74.1459 84.7283 73.4189C84.7283 72.8933 84.4393 72.1926 84.3254 71.9649C84.2291 71.781 84.3079 71.5532 84.4918 71.4569C84.6758 71.3605 84.9035 71.4393 84.9998 71.6233C85.0173 71.6671 85.4903 72.6131 85.4903 73.4189C85.4815 74.3736 85.0086 75.1532 84.9823 75.1795C84.9035 75.3021 84.7809 75.3634 84.6583 75.3634Z" fill="white"/>
        <path d="M85.9114 76.0119C85.8501 76.0119 85.7801 75.9944 85.7275 75.9594C85.5436 75.8543 85.4823 75.6265 85.5874 75.4426C85.5961 75.4338 86.1654 74.4178 86.1654 73.4192C86.1654 72.5258 85.5874 71.2995 85.5786 71.2908C85.491 71.0981 85.5699 70.8791 85.7538 70.7828C85.9377 70.6864 86.1654 70.774 86.2618 70.9579C86.288 71.0105 86.9274 72.3594 86.9274 73.4192C86.9274 74.6192 86.2793 75.7667 86.253 75.8105C86.1654 75.9419 86.0428 76.0119 85.9114 76.0119Z" fill="white"/>
        <path d="M87.1898 76.6335C87.1284 76.6335 87.0584 76.616 86.9971 76.5809C86.8131 76.4758 86.7518 76.2481 86.8569 76.0641C86.8657 76.0554 87.6014 74.7678 87.5488 73.4364C87.4963 72.1751 86.7694 70.5459 86.7606 70.5284C86.673 70.3357 86.7606 70.1167 86.9533 70.0291C87.1372 69.9416 87.3649 70.0292 87.4525 70.2219C87.4875 70.2919 88.2495 71.9999 88.302 73.4101C88.3634 74.9693 87.5401 76.3882 87.505 76.4495C87.4437 76.5722 87.3211 76.6335 87.1898 76.6335Z" fill="white"/>
        <path d="M80.2789 106.458C83.5633 106.458 86.2257 103.795 86.2257 100.51C86.2257 97.2257 83.5633 94.563 80.2789 94.563C76.9945 94.563 74.332 97.2257 74.332 100.51C74.332 103.795 76.9945 106.458 80.2789 106.458Z" fill="#FF560C"/>
        <path d="M58.0069 103.182H14.3119C13.7689 103.182 13.3223 102.744 13.3223 102.192V99.9849C13.3223 99.4418 13.7602 98.9951 14.3119 98.9951H58.0069C58.5499 98.9951 58.9966 99.4331 58.9966 99.9849V102.192C58.9966 102.735 58.5587 103.182 58.0069 103.182Z" fill="white"/>
        <path d="M46.3847 65.8948H14.3645C13.7865 65.8948 13.3223 65.4306 13.3223 64.8525V62.7503C13.3223 62.1722 13.7865 61.708 14.3645 61.708H46.3759C46.954 61.708 47.4182 62.1722 47.4182 62.7503V64.8525C47.4269 65.4219 46.954 65.8948 46.3847 65.8948Z" fill="white"/>
        <path opacity="0.63" d="M180 275.84H66.887C64.0231 275.84 61.6934 273.519 61.6934 270.646V10.7298C61.6934 7.86556 64.0143 5.53564 66.887 5.53564H180C182.864 5.53564 185.194 7.8568 185.194 10.7298V270.646C185.194 273.51 182.864 275.84 180 275.84Z" fill="#2876F9"/>
        <path d="M180 275.84H66.887C64.0231 275.84 61.6934 273.519 61.6934 270.646V10.7298C61.6934 7.86556 64.0143 5.53564 66.887 5.53564H180C182.864 5.53564 185.194 7.8568 185.194 10.7298V270.646C185.194 273.51 182.864 275.84 180 275.84Z" fill="white"/>
        <path d="M180 275.84H66.887C64.0231 275.84 61.6934 273.519 61.6934 270.646V247.338H185.194V270.646C185.194 273.51 182.864 275.84 180 275.84Z" fill="#E8EEFB"/>
        <path d="M180.832 275.84H66.1863C63.7078 275.84 61.6934 273.826 61.6934 271.347V265.417H185.194V271.478C185.194 273.887 183.241 275.84 180.832 275.84Z" fill="#DAE2F5"/>
        <path d="M187.322 5.54449C184.809 2.18101 180.771 0 176.252 0H70.6271C66.1079 0 62.0878 2.18101 59.5567 5.54449C57.8226 7.85688 56.7979 10.7299 56.7979 13.8481V266.827C56.7979 274.465 62.9899 280.658 70.6271 280.658H176.243C183.88 280.658 190.09 274.465 190.09 266.827V13.8481C190.099 10.7386 189.074 7.85688 187.322 5.54449ZM185.194 265.741C185.194 271.321 180.666 275.849 175.087 275.849H71.7832C66.2042 275.849 61.6937 271.321 61.6937 265.741V15.6349C61.6937 10.0554 66.2042 5.54449 71.7832 5.54449H175.087C180.666 5.54449 185.194 10.0554 185.194 15.6349V265.741Z" fill="#2876F9"/>
        <path d="M131.366 49.9967H115.443L116.696 17.5181H129.93L131.366 49.9967Z" fill="#FF560C"/>
        <path d="M124.841 63.7483H121.968C118.369 63.7483 115.443 60.8228 115.443 57.2228V49.9966H131.366V57.2228C131.366 60.8228 128.441 63.7483 124.841 63.7483Z" fill="#E44B0C"/>
        <path d="M115.442 49.9967H99.5283L103.329 17.5181H116.695L115.442 49.9967Z" fill="white"/>
        <path d="M108.9 63.7483H106.071C102.454 63.7483 99.5283 60.814 99.5283 57.2053V49.9966H115.451V57.2053C115.442 60.814 112.517 63.7483 108.9 63.7483Z" fill="#E0E6F3"/>
        <path d="M99.4421 49.9967H83.5195L90.2021 17.5181H103.138L99.4421 49.9967Z" fill="#FF560C"/>
        <path d="M92.9872 63.7483H89.9744C86.4098 63.7483 83.5195 60.8578 83.5195 57.2929V49.9966H99.4421V57.2929C99.4421 60.8578 96.5518 63.7483 92.9872 63.7483Z" fill="#E44B0C"/>
        <path d="M83.4919 49.9967H67.5781L76.5116 17.5181H90.2007L83.4919 49.9967Z" fill="white"/>
        <path d="M77.0283 63.7483H74.0417C70.4683 63.7483 67.5781 60.8491 67.5781 57.2841V49.9966H83.5006V57.2841C83.4919 60.8491 80.6017 63.7483 77.0283 63.7483Z" fill="#E0E6F3"/>
        <path d="M67.6052 49.9967H51.6914L63.1034 17.5181H76.5123L67.6052 49.9967Z" fill="#FF560C"/>
        <path d="M61.0365 63.7483H58.2601C54.6342 63.7483 51.6914 60.8053 51.6914 57.179V49.9966H67.6139V57.179C67.6052 60.8053 64.6624 63.7483 61.0365 63.7483Z" fill="#E44B0C"/>
        <path d="M131.444 49.9967H147.358L143.557 17.5181H130.191L131.444 49.9967Z" fill="white"/>
        <path d="M138.013 63.7483H140.781C144.415 63.7483 147.358 60.8053 147.358 57.1703V49.9966H131.436V57.1703C131.444 60.8053 134.387 63.7483 138.013 63.7483Z" fill="#E0E6F3"/>
        <path d="M147.446 49.9967H163.369L156.686 17.5181H143.75L147.446 49.9967Z" fill="#FF560C"/>
        <path d="M155.407 63.7483C159.803 63.7483 163.368 60.1834 163.368 55.7863V49.9966H147.445V55.7863C147.445 60.1834 151.01 63.7483 155.407 63.7483Z" fill="#E44B0C"/>
        <path d="M163.385 49.9967H179.307L170.374 17.5181H156.685L163.385 49.9967Z" fill="white"/>
        <path d="M169.937 63.7483H172.766C176.383 63.7483 179.308 60.814 179.308 57.2053V49.9966H163.386V57.2053C163.386 60.814 166.32 63.7483 169.937 63.7483Z" fill="#E0E6F3"/>
        <path d="M179.272 49.9967H195.195L183.774 17.5181H170.374L179.272 49.9967Z" fill="#FF560C"/>
        <path d="M187.234 63.7483C191.63 63.7483 195.195 60.1834 195.195 55.7863V49.9966H179.272V55.7863C179.272 60.1834 182.837 63.7483 187.234 63.7483Z" fill="#E44B0C"/>
        <path d="M169.473 89.2373H127.529V97.5146H169.473V89.2373Z" fill="#E8EEFB"/>
        <path d="M169.052 106.878H160.39V115.541H169.052V106.878Z" fill="#E8EEFB"/>
        <path d="M169.473 171.38H127.529V179.657H169.473V171.38Z" fill="#E8EEFB"/>
        <path d="M140.658 243.555H110.083V237.397H140.658V243.555ZM110.232 243.406H140.509V237.546H110.232V243.406Z" fill="#8196C7"/>
        <path d="M169.052 189.012H160.39V197.674H169.052V189.012Z" fill="#E8EEFB"/>
        <path d="M148.505 232.054H104.057V232.203H148.505V232.054Z" fill="#8196C7"/>
        <path d="M72.0371 218.609H173.344V221.394H72.0371V218.609Z" fill="#B8D2FB"/>
        <path d="M72.2637 130.633H173.57V133.418H72.2637V130.633Z" fill="#B8D2FB"/>
        <path d="M72.2637 136.099H173.57V138.884H72.2637V136.099Z" fill="#B8D2FB"/>
        <path d="M72.125 142.134L102.674 142.081V144.866L72.125 144.919V142.134Z" fill="#B8D2FB"/>
        <path d="M72.0273 213.143H173.334V215.928H72.0273V213.143Z" fill="#B8D2FB"/>
        <path d="M71.8877 224.644L102.437 224.591V227.377L71.8877 227.429V224.644Z" fill="#B8D2FB"/>
        <path d="M160.285 96.7348C160.145 96.7348 160.022 96.6209 160.022 96.472V90.2794C160.022 90.1392 160.136 90.0166 160.285 90.0166C160.425 90.0166 160.548 90.1305 160.548 90.2794V96.472C160.539 96.6209 160.425 96.7348 160.285 96.7348Z" fill="#0C5DF5"/>
        <path d="M163.28 92.0664L167.02 92.0576L165.286 94.7116L163.28 92.0664Z" fill="white"/>
        <path d="M165.286 94.9657C165.207 94.9657 165.128 94.9307 165.076 94.8606L163.07 92.2241C163.009 92.1453 163 92.0402 163.044 91.9526C163.088 91.865 163.175 91.8125 163.272 91.8125L167.011 91.8037C167.108 91.8037 167.195 91.8563 167.239 91.9351C167.283 92.0227 167.283 92.119 167.23 92.1979L165.496 94.8519C165.452 94.9132 165.374 94.957 165.286 94.9657ZM163.797 92.3205L165.269 94.2563L166.539 92.3117L163.797 92.3205Z" fill="#0C5DF5"/>
        <path d="M163.001 109.944C163.001 109.909 162.913 109.033 163.439 108.428C163.728 108.087 164.148 107.903 164.682 107.868C165.19 107.842 165.602 107.982 165.908 108.288C166.478 108.858 166.451 109.786 166.451 109.821L166.013 109.804C166.013 109.804 166.04 109.024 165.602 108.595C165.392 108.385 165.094 108.288 164.708 108.306C164.306 108.323 163.99 108.463 163.78 108.709C163.377 109.173 163.447 109.9 163.447 109.9L163.001 109.944Z" fill="#436EF6"/>
        <path d="M162.169 114.192C161.827 114.192 161.547 113.912 161.547 113.57L162.064 110.391C162.064 110.084 162.344 109.804 162.685 109.804H167.003C167.345 109.804 167.625 110.084 167.625 110.426L168.107 113.474C168.107 113.85 167.827 114.131 167.485 114.131L162.169 114.192ZM162.677 110.25C162.58 110.25 162.493 110.329 162.493 110.434L161.976 113.614C161.976 113.675 162.064 113.763 162.16 113.763L167.476 113.701C167.581 113.701 167.66 113.623 167.66 113.518L167.178 110.469C167.178 110.338 167.091 110.25 166.995 110.25H162.677Z" fill="#436EF6"/>
        <path d="M71.248 73.0679H116.511V124.51H71.248V73.0679Z" fill="#E8EEFB"/>
        <path d="M88.7557 83.141L90.5424 81.249C90.5424 81.249 91.9087 82.1249 93.4677 82.0636C94.2735 82.0286 96.0251 81.5731 96.0251 81.5731L97.2775 83.3424C97.2775 83.3424 101.096 83.7278 103.023 85.2694C104.95 86.811 111.851 105.109 111.851 105.109L111.072 107.141L112.167 109.909L110.161 111.459L108.339 108.779L106.027 108.017L100.597 95.3949L102.392 112.712H84.8058L85.1911 95.3949L81.355 107.08L79.2443 108.385L77.9831 110.951L75.3206 110.171L75.8899 107.605L74.8389 105.275C74.8389 105.275 79.2881 88.8606 80.9521 87.065C82.625 85.2607 88.7557 83.141 88.7557 83.141Z" fill="#718EE1"/>
        <path d="M107.088 119.403C107.088 116.977 109.059 115.015 111.493 115.015C113.928 115.015 115.899 116.977 115.899 119.403C115.899 121.83 113.928 123.792 111.493 123.792C109.059 123.792 107.088 121.83 107.088 119.403Z" fill="white"/>
        <path d="M111.483 122.32C111.457 122.32 111.422 122.311 111.396 122.294C111.282 122.215 108.584 120.288 108.611 118.606C108.619 118.072 108.9 117.625 109.434 117.266C109.767 117.047 110.108 116.986 110.441 117.064C110.94 117.187 111.308 117.599 111.492 117.844C111.685 117.59 112.07 117.17 112.587 117.056C112.937 116.977 113.27 117.047 113.603 117.266C114.093 117.59 114.338 118.01 114.356 118.51C114.4 120.183 111.676 122.206 111.562 122.294C111.545 122.311 111.51 122.32 111.483 122.32ZM110.178 117.318C109.986 117.318 109.793 117.38 109.6 117.502C109.145 117.8 108.917 118.159 108.908 118.597C108.882 119.972 111.019 121.637 111.483 121.978C111.947 121.619 114.102 119.876 114.076 118.501C114.067 118.098 113.865 117.765 113.454 117.494C113.191 117.318 112.928 117.266 112.666 117.318C112.061 117.45 111.623 118.159 111.623 118.159C111.597 118.203 111.545 118.229 111.501 118.229C111.448 118.229 111.404 118.203 111.378 118.159C111.378 118.159 110.975 117.467 110.388 117.327C110.31 117.327 110.24 117.318 110.178 117.318Z" fill="#0C5DF5"/>
        <path d="M148.286 115.541H132.031C129.544 115.541 127.529 113.526 127.529 111.039C127.529 108.551 129.544 106.537 132.031 106.537H148.286C150.774 106.537 152.788 108.551 152.788 111.039C152.788 113.526 150.782 115.541 148.286 115.541Z" fill="#436EF6"/>
        <path d="M160.285 178.878C160.145 178.878 160.022 178.764 160.022 178.615V172.422C160.022 172.282 160.136 172.16 160.285 172.16C160.425 172.16 160.548 172.274 160.548 172.422V178.615C160.539 178.755 160.425 178.878 160.285 178.878Z" fill="#0C5DF5"/>
        <path d="M163.28 174.209L167.02 174.201L165.286 176.855L163.28 174.209Z" fill="white"/>
        <path d="M165.286 177.108C165.207 177.108 165.128 177.073 165.076 177.003L163.07 174.367C163.009 174.288 163 174.183 163.044 174.095C163.088 174.008 163.175 173.955 163.272 173.955L167.011 173.946C167.108 173.946 167.195 173.999 167.239 174.078C167.283 174.157 167.283 174.262 167.23 174.34L165.496 176.994C165.452 177.056 165.374 177.1 165.286 177.108ZM163.797 174.463L165.269 176.399L166.539 174.454L163.797 174.463Z" fill="#0C5DF5"/>
        <path d="M163.001 192.086C163.001 192.051 162.913 191.175 163.439 190.571C163.728 190.229 164.148 190.045 164.682 190.019C165.19 189.984 165.602 190.133 165.908 190.431C166.478 191 166.451 191.929 166.451 191.964L166.013 191.946C166.013 191.946 166.04 191.167 165.602 190.737C165.392 190.527 165.094 190.44 164.708 190.448C164.306 190.466 163.99 190.606 163.78 190.851C163.377 191.316 163.447 192.034 163.447 192.034L163.001 192.086Z" fill="#436EF6"/>
        <path d="M162.169 196.335C161.827 196.335 161.547 196.054 161.547 195.713L162.064 192.533C162.064 192.227 162.344 191.946 162.685 191.946H167.003C167.345 191.946 167.625 192.227 167.625 192.568L168.107 195.616C168.107 195.993 167.827 196.273 167.485 196.273L162.169 196.335ZM162.677 192.393C162.58 192.393 162.493 192.472 162.493 192.577L161.976 195.756C161.976 195.818 162.064 195.905 162.16 195.905L167.476 195.844C167.581 195.844 167.66 195.765 167.66 195.66L167.178 192.612C167.178 192.481 167.091 192.393 166.995 192.393H162.677Z" fill="#436EF6"/>
        <path d="M71.248 155.21H116.511V206.652H71.248V155.21Z" fill="#E8EEFB"/>
        <path d="M107.088 201.546C107.088 199.12 109.059 197.158 111.493 197.158C113.928 197.158 115.899 199.129 115.899 201.546C115.899 203.972 113.928 205.934 111.493 205.934C109.059 205.934 107.088 203.972 107.088 201.546Z" fill="white"/>
        <path d="M111.483 204.463C111.457 204.463 111.422 204.454 111.396 204.437C111.282 204.358 108.584 202.431 108.611 200.749C108.619 200.215 108.9 199.768 109.434 199.409C109.758 199.19 110.099 199.12 110.441 199.208C110.94 199.33 111.308 199.742 111.492 199.987C111.685 199.733 112.07 199.313 112.587 199.199C112.928 199.12 113.27 199.19 113.603 199.409C114.084 199.733 114.338 200.154 114.356 200.653C114.4 202.326 111.676 204.349 111.562 204.437C111.545 204.454 111.51 204.463 111.483 204.463ZM110.178 199.462C109.986 199.462 109.793 199.523 109.6 199.645C109.145 199.943 108.917 200.302 108.908 200.74C108.882 202.116 111.019 203.78 111.483 204.121C111.947 203.762 114.102 202.019 114.076 200.644C114.067 200.241 113.865 199.908 113.454 199.637C113.191 199.462 112.928 199.409 112.666 199.462C112.053 199.602 111.623 200.302 111.623 200.302C111.597 200.346 111.553 200.372 111.501 200.372C111.448 200.372 111.396 200.346 111.369 200.302C111.369 200.302 110.967 199.61 110.38 199.47C110.31 199.47 110.24 199.462 110.178 199.462Z" fill="#0C5DF5"/>
        <path d="M148.286 197.683H132.031C129.544 197.683 127.529 195.668 127.529 193.181C127.529 190.693 129.544 188.679 132.031 188.679H148.286C150.774 188.679 152.788 190.693 152.788 193.181C152.797 195.66 150.782 197.683 148.286 197.683Z" fill="#436EF6"/>
        <path d="M86.5668 160.711H100.571L102.673 168.98L106.133 197.683L99.7568 198.288L93.88 174.192L90.2628 198.288L83.3613 197.149L84.8678 169.47L86.5668 160.711Z" fill="#436EF6"/>
        <path d="M100.562 159.249H86.5488V160.711H100.562V159.249Z" fill="#436EF6"/>
        <path d="M183.669 15.2935H63.2168V17.492H183.669V15.2935Z" fill="#0C5DF5"/>
        <path d="M160.907 144.813H199.487C200.354 144.813 201.063 146.127 201.063 147.748V183.958C201.063 185.578 200.363 186.892 199.487 186.892H160.907C160.04 186.892 159.33 185.578 159.33 183.958V147.748C159.339 146.119 160.04 144.813 160.907 144.813Z" fill="white"/>
        <path d="M199.495 187.242H160.915C159.829 187.242 158.979 185.797 158.979 183.949V147.739C158.979 145.891 159.829 144.437 160.915 144.437H199.495C200.581 144.437 201.44 145.882 201.44 147.739V183.949C201.431 185.797 200.581 187.242 199.495 187.242ZM160.906 145.172C160.337 145.172 159.698 146.223 159.698 147.739V183.949C159.698 185.455 160.337 186.515 160.906 186.515H199.486C200.056 186.515 200.695 185.464 200.695 183.949V147.739C200.695 146.223 200.056 145.172 199.486 145.172H160.906Z" fill="#0C5DF5"/>
        <path d="M189.493 161.15L168.535 161.062C168.333 161.062 168.167 160.896 168.167 160.694C168.167 160.493 168.333 160.326 168.535 160.326L189.493 160.414C189.695 160.414 189.861 160.58 189.861 160.782C189.852 160.983 189.695 161.15 189.493 161.15Z" fill="#0C5DF5"/>
        <path d="M184.685 176.329C184.659 176.329 184.633 176.329 184.607 176.32H174.754C174.552 176.32 174.386 176.154 174.386 175.952C174.386 175.751 174.552 175.584 174.754 175.584H184.607C184.685 175.523 184.887 175.365 185.334 174.962C185.771 173.324 190.212 156.612 190.413 155.973C190.641 155.228 191.447 155.079 191.858 155.097L196.509 154.887C196.711 154.843 196.886 155.036 196.894 155.237C196.903 155.438 196.746 155.614 196.544 155.622L191.858 155.833C191.823 155.833 191.237 155.815 191.114 156.201C190.913 156.849 186.069 175.076 186.017 175.26C185.999 175.33 185.964 175.392 185.912 175.435C185.237 176.04 184.922 176.329 184.685 176.329Z" fill="#0C5DF5"/>
        <path d="M186.069 172.475L171.916 172.396C171.758 172.396 171.609 172.291 171.565 172.134L168.193 160.887C168.132 160.694 168.246 160.484 168.439 160.431C168.631 160.379 168.833 160.484 168.894 160.677L172.187 171.661L186.069 171.739C186.27 171.739 186.437 171.906 186.437 172.107C186.437 172.309 186.27 172.475 186.069 172.475Z" fill="#0C5DF5"/>
        <path d="M174.613 172.37C174.447 172.37 174.298 172.256 174.254 172.089L171.408 160.86C171.355 160.668 171.478 160.466 171.67 160.414C171.872 160.361 172.065 160.484 172.117 160.676L174.964 171.905C175.016 172.098 174.893 172.3 174.701 172.352C174.675 172.37 174.64 172.37 174.613 172.37Z" fill="#0C5DF5"/>
        <path d="M183.712 172.37C183.695 172.37 183.669 172.37 183.651 172.361C183.45 172.326 183.318 172.133 183.353 171.932L185.306 161.062C185.341 160.86 185.534 160.729 185.736 160.764C185.937 160.799 186.068 160.992 186.033 161.193L184.08 172.063C184.036 172.247 183.888 172.37 183.712 172.37Z" fill="#0C5DF5"/>
        <path d="M180.815 172.203C180.613 172.203 180.447 172.028 180.455 171.827L180.701 160.895C180.709 160.694 180.867 160.519 181.077 160.536C181.279 160.545 181.436 160.712 181.436 160.913L181.191 171.844C181.182 172.046 181.016 172.212 180.815 172.203Z" fill="#0C5DF5"/>
        <path d="M177.294 172.422C177.11 172.422 176.952 172.291 176.926 172.098L175.525 160.957C175.498 160.755 175.639 160.571 175.84 160.545C176.041 160.519 176.225 160.659 176.252 160.86L177.653 172.002C177.679 172.203 177.539 172.387 177.338 172.414C177.32 172.422 177.311 172.422 177.294 172.422Z" fill="#0C5DF5"/>
        <path d="M188.461 164.767L169.587 164.644C169.385 164.644 169.219 164.478 169.219 164.277C169.219 164.075 169.385 163.909 169.587 163.909L188.461 164.023C188.662 164.023 188.829 164.189 188.829 164.39C188.829 164.601 188.662 164.767 188.461 164.767Z" fill="#0C5DF5"/>
        <path d="M187.321 168.761L170.925 168.612C170.724 168.612 170.558 168.446 170.558 168.244C170.558 168.043 170.724 167.876 170.925 167.876L187.321 168.025C187.522 168.025 187.689 168.192 187.689 168.393C187.689 168.595 187.522 168.761 187.321 168.761Z" fill="#0C5DF5"/>
        <path d="M176.846 179.219C175.979 179.219 175.27 178.51 175.27 177.643C175.27 176.775 175.979 176.066 176.846 176.066C177.713 176.066 178.423 176.775 178.423 177.643C178.414 178.51 177.713 179.219 176.846 179.219ZM176.846 176.802C176.382 176.802 176.005 177.178 176.005 177.643C176.005 178.107 176.382 178.483 176.846 178.483C177.31 178.483 177.687 178.107 177.687 177.643C177.687 177.178 177.31 176.802 176.846 176.802Z" fill="#0C5DF5"/>
        <path d="M182.82 179.219C181.953 179.219 181.243 178.51 181.243 177.643C181.243 176.775 181.953 176.066 182.82 176.066C183.687 176.066 184.396 176.775 184.396 177.643C184.387 178.51 183.687 179.219 182.82 179.219ZM182.82 176.802C182.355 176.802 181.979 177.178 181.979 177.643C181.979 178.107 182.355 178.483 182.82 178.483C183.284 178.483 183.66 178.107 183.66 177.643C183.66 177.178 183.284 176.802 182.82 176.802Z" fill="#0C5DF5"/>
        <path d="M197.472 156.489C196.78 156.489 196.22 155.929 196.22 155.237C196.22 154.545 196.78 153.984 197.472 153.984C198.164 153.984 198.725 154.545 198.725 155.237C198.716 155.92 198.155 156.489 197.472 156.489ZM197.472 154.72C197.192 154.72 196.955 154.948 196.955 155.237C196.955 155.517 197.183 155.754 197.472 155.754C197.752 155.754 197.989 155.526 197.989 155.237C197.989 154.948 197.752 154.72 197.472 154.72Z" fill="#0C5DF5"/>
        <path d="M201.064 122.969C197.236 122.969 194.127 119.85 194.127 116.031C194.127 112.204 197.245 109.094 201.064 109.094C204.891 109.094 208 112.212 208 116.031C208 119.85 204.891 122.969 201.064 122.969ZM201.064 110.128C197.814 110.128 195.16 112.773 195.16 116.031C195.16 119.29 197.805 121.935 201.064 121.935C204.313 121.935 206.967 119.29 206.967 116.031C206.967 114.455 206.353 112.974 205.241 111.853C204.129 110.741 202.64 110.128 201.064 110.128Z" fill="white"/>
        <path d="M184.878 13.1301H62.0088C63.016 8.54031 67.1149 5.35201 72.3085 5.55347L174.912 5.54471C180.324 5.53595 184.046 9.32862 184.878 13.1301Z" fill="url(#paint2_linear_3694_7123)"/>
        <path d="M174.412 11.4658H167.712C167.195 11.4658 166.774 11.0454 166.774 10.5286V8.12863C166.774 7.61184 167.195 7.19141 167.712 7.19141H174.412C174.928 7.19141 175.349 7.61184 175.349 8.12863V10.5374C175.349 11.0454 174.928 11.4658 174.412 11.4658ZM167.712 7.6644C167.458 7.6644 167.247 7.87461 167.247 8.12863V10.5374C167.247 10.7914 167.458 11.0016 167.712 11.0016H174.412C174.666 11.0016 174.876 10.7914 174.876 10.5374V8.12863C174.876 7.87461 174.666 7.6644 174.412 7.6644H167.712Z" fill="white"/>
        <path d="M172.826 10.6778H168.044C167.737 10.6778 167.501 10.4238 167.501 10.1172V8.54935C167.501 8.24278 167.737 7.98877 168.044 7.98877H171.127L172.826 10.6778Z" fill="white"/>
        <path d="M175.839 8.99598V9.53029C175.839 9.62663 175.769 9.70547 175.673 9.70547H175.112V8.8208H175.673C175.769 8.8208 175.839 8.90839 175.839 8.99598Z" fill="white"/>
        <path d="M76.6001 8.65428L75.9432 9.34624C75.3389 8.7769 74.5244 8.42654 73.631 8.42654C72.7202 8.42654 71.8881 8.79442 71.2926 9.38128L70.627 8.69807C71.4064 7.93603 72.4662 7.4718 73.631 7.4718C74.7784 7.46304 75.8206 7.91852 76.6001 8.65428Z" fill="white"/>
        <path d="M75.6187 9.67894L74.9618 10.3797C74.6115 10.0468 74.1473 9.85412 73.6306 9.85412C73.1051 9.85412 72.6321 10.0643 72.2818 10.4059L71.6074 9.71398C72.1329 9.20595 72.8423 8.89062 73.6218 8.89062C74.4013 8.89062 75.102 9.18843 75.6187 9.67894Z" fill="white"/>
        <path d="M74.6209 10.7301L73.6312 11.7724L72.624 10.7476C72.8868 10.4936 73.2371 10.3359 73.6312 10.3359C74.0166 10.3359 74.3669 10.4848 74.6209 10.7301Z" fill="white"/>
        <path d="M85.7425 7.13867H84.4287V11.781H85.7425V7.13867Z" fill="white"/>
        <path d="M83.7893 8.16357H82.4756V11.7811H83.7893V8.16357Z" fill="white"/>
        <path d="M81.9856 9.03076H80.6719V11.7723H81.9856V9.03076Z" fill="white"/>
        <path d="M80.2073 10.4058H78.8936V11.7809H80.2073V10.4058Z" fill="white"/>
        <path d="M11.0087 263.709L6.98865 277.487L2.37305 275.324L4.57137 260.136L11.0087 263.709Z" fill="#FF9A67"/>
        <path d="M2.18033 273.87C1.62856 273.826 -0.394602 277.119 0.0695855 278.941C0.341092 280.01 2.19784 279.694 4.58885 279.975C6.97986 280.255 8.90667 281.148 10.5532 281.105C12.1998 281.061 17.3847 280.535 17.3847 280.535L17.2095 279.151C17.2095 279.151 14.6433 279.099 13.6011 278.363C12.5589 277.627 8.22353 274.29 8.22353 274.29C8.06588 274.483 6.92731 275.332 5.70991 275.858C4.49251 276.383 4.34362 276.252 3.77433 275.945C2.75837 275.394 3.05615 273.94 2.18033 273.87Z" fill="#0C0C0C"/>
        <path d="M44.999 260.889L45.4369 275.236L40.3746 274.614L37.7734 259.487L44.999 260.889Z" fill="#FF9A67"/>
        <path d="M39.3239 272.109C38.7721 272.144 37.2394 275.691 37.9664 277.434C38.3868 278.459 40.1735 277.872 42.582 277.802C44.9905 277.732 47.0224 278.345 48.6427 278.065C50.2717 277.785 55.3253 276.523 55.3253 276.523L54.9574 275.183C54.9574 275.183 52.4088 275.499 51.2702 274.92C50.1316 274.342 45.3671 271.662 45.3671 271.662C45.2445 271.872 44.2373 272.88 43.1075 273.572C41.9777 274.264 41.8113 274.158 41.2069 273.931C40.1209 273.537 40.2085 272.056 39.3239 272.109Z" fill="#0C0C0C"/>
        <path d="M43.9486 188.478C43.9486 188.478 44.877 196.869 45.3499 199.54C45.8229 202.203 45.7791 226.544 45.9718 232.711C46.1645 238.877 45.5777 261.668 45.5777 261.668L48.1526 263.858L36.0837 266.013C36.0837 266.013 33.7102 265.058 34.4634 263.289C35.2166 261.528 36.7844 261.318 36.2939 258.839C35.8034 256.36 33.3861 250.413 33.8854 247.128C34.3846 243.844 35.637 237.966 35.1378 234.831C34.6298 231.695 30.6536 207.599 30.9601 207.318C25.5212 235.715 11.5518 267.668 11.5518 267.668C11.5518 267.668 7.93464 264.41 6.32312 264.848C4.7116 265.286 3.18766 265.741 3.18766 265.741C3.18766 265.741 2.47824 264.629 2.9687 263.017C3.45916 261.406 5.42102 259.154 6.08664 256.632C6.75227 254.118 6.83985 254.127 6.83985 254.127C6.83985 254.127 6.77855 247.426 7.34783 245.079C7.91712 242.731 10.457 233.955 11.0526 229.663C11.6569 225.371 13.4611 212.18 13.1108 205.768C12.6466 197.202 15.2916 185.359 15.2916 185.359C15.2916 185.359 19.6357 186.279 22.6135 185.359C25.5913 184.44 28.683 187.558 32.5804 187.234C36.4866 186.901 43.9486 188.478 43.9486 188.478Z" fill="#273976"/>
        <path d="M75.7935 152.005C75.7935 152.005 71.9399 154.291 71.3443 154.571C70.7575 154.852 68.9095 155.911 68.9095 155.911L64.8369 165.827C64.8369 165.827 66.9739 165.389 67.9549 165.31C68.927 165.231 69.9079 165.362 70.6261 164.846C71.3443 164.329 73.9368 162.708 74.3221 162.533C74.7075 162.349 76.9408 161.71 77.1248 161.508C77.3087 161.307 78.8852 160.072 78.7188 159.091C78.6837 158.863 80.4704 158.592 80.1814 157.427C79.9011 156.262 79.183 156.595 79.183 156.595L79.6209 156.025C79.6209 156.025 81.8017 155.824 81.8279 155.027C81.8542 154.23 81.0309 153.897 81.0309 153.897L75.7935 152.005Z" fill="#F1A57E"/>
        <path d="M76.2498 148.466L81.5485 152.32C81.6449 152.39 81.6624 152.521 81.5923 152.609L73.5873 163.61C73.5172 163.707 73.3858 163.724 73.2982 163.654L67.9995 159.8C67.9032 159.73 67.8856 159.599 67.9557 159.511L75.9608 148.51C76.0308 148.413 76.1622 148.396 76.2498 148.466Z" fill="#0C5DF5"/>
        <path d="M76.3106 148.93L81.0926 152.452C81.2327 152.548 81.1626 152.881 81.1626 152.881L73.6305 163.234C73.5342 163.374 73.3415 163.4 73.2014 163.304L68.4194 159.783C68.2792 159.686 68.253 159.494 68.3493 159.354L75.8814 149C75.9778 148.86 76.1704 148.834 76.3106 148.93Z" fill="#E8EEFB"/>
        <path d="M73.3766 163.593C73.2715 163.593 73.1576 163.558 73.0613 163.488L68.2793 159.967C68.1654 159.879 68.0866 159.757 68.0691 159.617C68.0428 159.476 68.0778 159.336 68.1654 159.214L75.6975 148.86C75.7764 148.747 75.9077 148.668 76.0479 148.641C76.1967 148.615 76.3369 148.659 76.4507 148.738L81.2327 152.259C81.4692 152.434 81.4167 152.811 81.3904 152.925C81.3816 152.96 81.3729 152.986 81.3554 153.012L73.8233 163.365C73.7006 163.514 73.543 163.593 73.3766 163.593ZM76.1267 149.106C76.1004 149.106 76.0829 149.114 76.0654 149.141L68.5333 159.503C68.5158 159.529 68.5158 159.546 68.5158 159.564C68.5158 159.573 68.5245 159.599 68.5508 159.617L73.3328 163.138C73.3678 163.155 73.4116 163.155 73.4379 163.12L80.935 152.802C80.9437 152.732 80.9437 152.653 80.9262 152.627L76.1705 149.132C76.153 149.106 76.1442 149.106 76.1267 149.106Z" fill="#0C5DF5"/>
        <path d="M78.6494 150.349C78.6669 150.34 79.2449 150.778 79.2537 150.787C79.0522 151.059 78.7457 151.304 78.5092 151.12C78.2903 150.945 78.483 150.411 78.6494 150.349Z" fill="#0C5DF5"/>
        <path d="M78.6321 150.726C78.6847 150.656 78.781 150.638 78.8511 150.691C78.9211 150.743 78.9299 150.84 78.8861 150.91C78.8336 150.98 78.7372 150.997 78.6672 150.945C78.5971 150.892 78.5796 150.796 78.6321 150.726Z" fill="#0C0C0C"/>
        <path d="M59.0303 162.384L63.4795 160.107L67.99 156.367L69.1461 155.789L72.6143 156.139L74.62 158.837C74.62 158.837 74.2696 159.905 71.3444 158.416C70.451 157.961 69.3037 161.079 69.3037 161.079L66.3347 163.006L65.7216 165.818L61.4826 169.015L59.0303 162.384Z" fill="#FEB08A"/>
        <path d="M31.9763 130.799C31.9763 130.799 32.9748 135.485 34.9892 135.756C37.0036 136.037 39.8938 136.3 39.5347 136.063C39.1756 135.827 39.307 134.364 39.307 134.364C39.307 134.364 44.0014 136.51 45.9721 138.883C47.9427 141.257 48.547 143.377 49.6067 146.451C50.6665 149.526 53.1363 164.066 53.1363 164.066L61.6231 159.914L65.8358 167.491C65.8358 167.491 53.653 177.09 51.0081 177.38C48.3631 177.669 45.6743 175.032 45.6743 175.032L44.4306 180.612L44.9123 186.121L45.5429 189.099C45.5429 189.099 38.5538 191.096 34.5863 189.397C30.6188 187.698 29.8131 186.647 25.3551 186.331C20.8884 186.007 20.0476 186.305 16.2202 186.34C12.4016 186.375 12.9271 183.879 12.9271 183.879L14.5737 182.232L13.5577 180.191L13.4263 177.485C13.4263 177.485 1.47132 177.161 0.542941 169.225C-0.385434 161.289 6.87517 146.758 6.87517 146.758C6.87517 146.758 10.2646 140.828 13.3475 137.605C16.4304 134.381 31.9763 130.799 31.9763 130.799Z" fill="#FFBB38"/>
        <path d="M45.4368 172.632C45.4105 172.632 45.393 172.632 45.3667 172.624C45.1828 172.589 45.0689 172.405 45.104 172.221C46.0148 167.929 46.1199 150.971 46.1199 150.805C46.1199 150.621 46.2688 150.454 46.4615 150.463C46.6454 150.463 46.8031 150.621 46.8031 150.805C46.8031 151.506 46.698 168.008 45.7696 172.361C45.7346 172.527 45.5944 172.632 45.4368 172.632Z" fill="#1D1119"/>
        <path d="M36.3112 177.371L42.7398 180.218L46.9438 181.917L48.4765 186.454L46.8912 190.396L41.9866 193.575L41.9516 191.841C41.9516 191.841 44.8243 190.028 44.7192 188.942C44.3688 185.368 40.9356 186.673 40.9356 186.673C40.9356 186.673 40.086 188.04 38.3782 187.295C37.3885 186.866 35.5405 184.063 35.5405 184.063L32.0635 182.434L36.3112 177.371Z" fill="#FEB08A"/>
        <path d="M61.4219 220.746L108.559 214.649L112.299 243.589L65.1617 249.686L61.4219 220.746Z" fill="#8396C6"/>
        <path d="M89.5352 216.804L109.259 214.255L112.999 243.195L93.2749 245.744L89.5352 216.804Z" fill="#ACC3F1"/>
        <path d="M96.5332 215.963L97.8207 223.662L99.2921 222.279L100.886 223.724L102.156 222.217L103.855 223.102L102.69 215.219L96.5332 215.963Z" fill="#FFFDF3"/>
        <path d="M71.5462 216.007C71.4411 216.007 71.3535 215.92 71.3535 215.815C71.3623 215.386 71.6338 205.409 76.3632 204.857C77.2391 204.752 78.0361 205.006 78.7192 205.602C81.4868 207.993 81.7145 215.175 81.7233 215.482C81.7233 215.587 81.6445 215.675 81.5394 215.683C81.4255 215.701 81.3467 215.604 81.3379 215.499C81.3379 215.429 81.1015 208.177 78.4652 205.899C77.8609 205.374 77.169 205.164 76.407 205.251C72.0104 205.768 71.7389 215.736 71.7389 215.841C71.7389 215.929 71.6425 216.016 71.5462 216.007Z" fill="#130C5C"/>
        <path d="M68.1563 211.82L67.6133 249.686L93.5115 246.331L92.6707 211.96L68.1563 211.82Z" fill="#FFBB38"/>
        <path d="M63.4364 211.855L65.9587 211.882L65.2318 245.595L62.2803 246.576L63.4364 211.855Z" fill="#FFBB38"/>
        <path d="M65.8529 211.943H68.2351L67.6571 249.423L65.1172 245.464L65.8529 211.943Z" fill="#C19311"/>
        <path d="M62.3232 246.611L65.3711 245.464L67.7183 249.484L62.3232 246.611Z" fill="#FFDFA1"/>
        <path d="M75.68 215.307C75.5749 215.307 75.4873 215.219 75.4873 215.114C75.4961 214.694 75.7676 204.708 80.497 204.156C81.3729 204.051 82.1611 204.305 82.853 204.901C85.6119 207.292 85.8483 214.475 85.8571 214.781C85.8571 214.886 85.7783 214.974 85.6732 214.983C85.5593 214.991 85.4805 214.904 85.4717 214.799C85.4717 214.729 85.2352 207.476 82.599 205.199C81.9947 204.673 81.3028 204.463 80.5408 204.551C76.1442 205.067 75.8727 215.035 75.8727 215.14C75.8727 215.228 75.7851 215.307 75.68 215.307Z" fill="#130C5C"/>
        <path d="M89.9036 228.165C89.7985 228.165 89.7109 228.077 89.7109 227.964C89.7197 227.718 89.8686 221.981 92.6274 221.657C93.1442 221.596 93.6171 221.745 94.0288 222.095C95.6228 223.479 95.7629 227.587 95.7629 227.762C95.7629 227.867 95.6841 227.955 95.579 227.964C95.4739 227.964 95.3863 227.885 95.3775 227.78C95.3775 227.736 95.2462 223.663 93.7748 222.393C93.442 222.112 93.0829 221.99 92.6712 222.042C90.2452 222.323 90.0963 227.92 90.0963 227.972C90.0963 228.086 90.0087 228.165 89.9036 228.165Z" fill="#130C5C"/>
        <path d="M87.9852 225.704L87.6787 247.198L102.384 245.298L101.911 225.782L87.9852 225.704Z" fill="#436DF6"/>
        <path d="M85.3053 225.721L86.7417 225.739L86.3301 244.877L84.6572 245.438L85.3053 225.721Z" fill="#436DF6"/>
        <path d="M86.6801 225.773H88.0289L87.6961 247.049L86.251 244.798L86.6801 225.773Z" fill="#3858D8"/>
        <path d="M84.666 245.455L86.3914 244.807L87.7227 247.093L84.666 245.455Z" fill="#5A80F6"/>
        <path d="M92.2503 227.762C92.1452 227.762 92.0576 227.675 92.0576 227.569C92.0664 227.324 92.2153 221.587 94.9741 221.263C95.4996 221.202 95.9726 221.351 96.3754 221.701C97.9694 223.085 98.1096 227.193 98.1096 227.368C98.1096 227.473 98.0308 227.561 97.9257 227.569C97.8381 227.578 97.733 227.491 97.7242 227.386C97.7242 227.342 97.5928 223.269 96.1215 221.999C95.7974 221.718 95.4295 221.605 95.0179 221.648C92.5919 221.929 92.443 227.526 92.443 227.578C92.443 227.683 92.3554 227.771 92.2503 227.762Z" fill="#130C5C"/>
        <path d="M85.0605 197.938H113.42V214.624H85.0605V197.938Z" fill="#C2D5FB"/>
        <path d="M85.0605 197.938H93.4072V214.624H85.0605V197.938Z" fill="#8396C6"/>
        <path d="M57.6819 270.261C57.6206 270.454 57.6556 270.673 57.7782 270.839C57.9008 271.006 58.0935 271.102 58.295 271.102H73.4643C72.422 272.074 71.7389 273.502 71.7389 275.105C71.7389 278.03 73.9285 280.404 76.626 280.404C79.3236 280.404 81.5131 278.03 81.5131 275.105C81.5131 273.502 80.8387 272.074 79.7877 271.102H104.355C103.312 272.074 102.629 273.502 102.629 275.105C102.629 278.03 104.819 280.404 107.516 280.404C110.214 280.404 112.404 278.03 112.404 275.105C112.404 273.502 111.729 272.074 110.678 271.102H116.117C116.476 271.102 116.765 270.813 116.765 270.454C116.765 270.095 116.476 269.806 116.117 269.806H59.1796L61.7195 261.555C62.4464 259.198 64.2769 257.517 66.4927 257.158L100.799 251.648C101.149 251.596 101.394 251.263 101.333 250.904C101.281 250.553 100.939 250.308 100.589 250.369L66.2825 255.879C63.5674 256.317 61.3516 258.34 60.4758 261.169L57.6819 270.261ZM107.525 271.102C109.505 271.102 111.116 272.898 111.116 275.105C111.116 277.312 109.505 279.108 107.525 279.108C105.546 279.108 103.934 277.312 103.934 275.105C103.934 272.898 105.546 271.102 107.525 271.102ZM76.6348 271.102C78.6141 271.102 80.2257 272.898 80.2257 275.105C80.2257 277.312 78.6141 279.108 76.6348 279.108C74.6554 279.108 73.0439 277.312 73.0439 275.105C73.0439 272.898 74.6554 271.102 76.6348 271.102Z" fill="#202D51"/>
        <path d="M39.7188 188.811C39.7188 190.475 40.9799 191.833 42.5302 191.833C43.8702 191.833 45 190.817 45.2715 189.459H46.5239C48.4858 189.459 50.1586 191.018 50.5089 193.164L59.5212 248.364C59.7489 249.783 60.4846 251 61.5969 251.788C62.3851 252.358 63.3048 252.655 64.2419 252.655C64.4784 252.655 64.7236 252.638 64.9688 252.594L123.702 242.933C125.515 242.635 126.942 241.111 127.24 239.158L128.256 232.466C128.484 232.334 128.615 232.08 128.571 231.809C128.554 231.678 128.484 231.572 128.405 231.485L132.18 206.697C132.39 205.313 132.005 203.929 131.12 202.895C130.323 201.976 129.246 201.468 128.081 201.468H53.1802L51.7964 192.971C51.341 190.195 49.1251 188.18 46.5327 188.18H45.2802C45 186.822 43.8789 185.806 42.5389 185.806C40.9799 185.789 39.7188 187.146 39.7188 188.811ZM55.7814 217.409L61.4568 217.085L63.0595 228.183L57.6294 228.708L55.7814 217.409ZM57.8396 229.987L63.2434 229.461L64.9163 241.094L59.7839 241.891L57.8396 229.987ZM127.117 231.371L122.756 232.054L123.448 223.602L128.379 223.12L127.117 231.371ZM93.7047 215.228L103.216 214.685V224.276L93.8711 225.187L93.7047 215.228ZM92.5749 225.31L83.9392 226.151L83.2999 215.832L92.4085 215.307L92.5749 225.31ZM104.512 214.606L113.385 214.098L112.938 223.321L104.512 224.145V214.606ZM112.877 224.635L112.439 233.666L104.521 234.901V225.441L112.877 224.635ZM103.216 235.111L94.055 236.539L93.8886 226.483L103.216 225.572V235.111ZM92.7675 236.74L84.6749 238.002L84.018 227.438L92.5924 226.606L92.7675 236.74ZM83.3962 238.203L74.8569 239.534L73.6483 228.445L82.7393 227.561L83.3962 238.203ZM73.4994 227.167L72.3258 216.463L82.0124 215.911L82.6518 226.282L73.4994 227.167ZM72.1856 215.167L70.8281 202.755H81.1979L81.9336 214.606L72.1856 215.167ZM82.4941 202.755H92.1983L92.3822 214.01L83.221 214.536L82.4941 202.755ZM93.4945 202.755H103.216V213.389L93.6784 213.932L93.4945 202.755ZM104.512 202.755H113.936L113.446 212.802L104.512 213.319V202.755ZM115.232 202.755H123.842L123.071 212.25L114.751 212.732L115.232 202.755ZM122.966 213.546L122.239 222.419L114.234 223.199L114.681 214.019L122.966 213.546ZM124.271 213.476L129.894 213.152L128.58 221.806L123.553 222.297L124.271 213.476ZM121.433 232.264L113.735 233.464L114.173 224.504L122.134 223.733L121.433 232.264ZM121.328 233.587L120.628 242.127L113.253 243.345L113.665 234.787L121.328 233.587ZM111.957 243.555L104.521 244.781V236.223L112.377 234.997L111.957 243.555ZM103.216 244.991L94.2214 246.472L94.0813 237.844L103.216 236.416V244.991ZM92.934 246.682L85.2968 247.943L84.7625 239.307L92.7938 238.054L92.934 246.682ZM84.0093 248.153L75.9429 249.485L74.997 240.831L83.475 239.508L84.0093 248.153ZM74.6642 249.695L67.6226 250.851L66.3789 242.18L73.7183 241.032L74.6642 249.695ZM66.1862 240.892L64.5309 229.33L72.352 228.568L73.5694 239.745L66.1862 240.892ZM62.7617 217.006L71.0383 216.533L72.2119 227.289L64.347 228.051L62.7617 217.006ZM62.5778 215.719L60.7123 202.755H69.5231L70.8894 215.246L62.5778 215.719ZM130.901 206.495L130.087 211.847L124.376 212.171L125.147 202.755H128.09C128.878 202.755 129.605 203.105 130.148 203.736C130.778 204.472 131.059 205.479 130.901 206.495ZM123.492 241.654L121.941 241.908L122.633 233.386L126.898 232.72L125.944 238.965C125.742 240.367 124.753 241.444 123.492 241.654ZM60.7999 248.153L59.9854 243.169L65.0914 242.372L66.3351 251.053L64.7499 251.315C63.9178 251.456 63.0595 251.245 62.3501 250.737C61.5443 250.159 60.9751 249.213 60.7999 248.153ZM53.3904 202.755H59.4073L61.2816 215.797L55.58 216.121L53.3904 202.755ZM41.015 188.811C41.015 187.856 41.6981 187.085 42.5302 187.085C43.3622 187.085 44.0453 187.865 44.0453 188.811C44.0453 189.765 43.3622 190.536 42.5302 190.536C41.6894 190.536 41.015 189.765 41.015 188.811Z" fill="#202D51"/>
        <path d="M30.8198 184.203C30.7847 184.203 30.7585 184.194 30.7234 184.186L13.2332 178.904C13.0493 178.851 12.9529 178.659 13.0055 178.484C13.058 178.308 13.2507 178.203 13.4259 178.256L30.6884 183.467L37.0294 175.497L19.8369 166.378L11.5866 168.349C11.4202 168.393 11.2538 168.305 11.1925 168.148C11.1312 167.99 11.1925 167.815 11.3414 167.727L17.8663 163.97L22.1053 148.177C22.1579 147.993 22.3418 147.897 22.5257 147.941C22.7096 147.993 22.8147 148.177 22.7622 148.361L18.4794 164.294C18.4531 164.381 18.4006 164.451 18.3217 164.504L13.7149 167.158L19.8106 165.704C19.8895 165.687 19.9771 165.695 20.0471 165.73L37.7125 175.103C37.8001 175.146 37.8614 175.234 37.8877 175.33C37.9052 175.427 37.8877 175.532 37.8176 175.611L31.0825 184.081C31.0212 184.159 30.9249 184.203 30.8198 184.203Z" fill="#1D1119"/>
        <path d="M39.1922 133.523C39.1309 133.523 39.0696 133.506 39.017 133.471C36.4333 131.885 35.3999 128.548 35.3561 128.408C35.3035 128.224 35.3999 128.04 35.5838 127.987C35.7677 127.935 35.9516 128.031 36.0042 128.215C36.0129 128.25 37.0114 131.447 39.3674 132.901C39.525 132.998 39.5775 133.208 39.4812 133.365C39.4199 133.462 39.306 133.523 39.1922 133.523Z" fill="#1D1119"/>
        <path d="M34.0694 125.71C34.0694 125.71 34.0431 129.091 31.9762 130.808C29.9093 132.525 34.1482 136.834 36.2327 137.07C39.3156 137.421 40.6469 135.879 40.6469 135.879L41.0235 133.97L34.0694 125.71Z" fill="#FEB08A"/>
        <path d="M36.7313 124.764C36.7313 124.764 36.0744 120.945 39.604 119.692C43.1336 118.448 46.9084 117.66 46.9084 117.66C46.9084 117.66 48.6513 120.971 48.5374 122.556C48.4236 124.142 46.2778 135.345 42.2227 134.81C38.1589 134.276 34.2177 128.705 34.2177 128.705C34.2177 128.705 32.2471 124.081 33.6834 123.248C35.1285 122.408 36.7313 124.764 36.7313 124.764Z" fill="#FEB08A"/>
        <path d="M36.8278 124.931C38.1328 124.133 37.2745 120.866 39.2539 120.183C41.2332 119.5 45.4109 118.536 47.2502 119.377C48.2223 119.824 48.704 121.698 48.704 121.698C48.704 121.698 50.044 121.506 50.0791 119.141C50.1141 116.776 48.7653 114.131 47.8194 113.693C43.668 111.748 39.9983 114.104 39.9983 114.104C39.9983 114.104 38.0803 111.415 35.7593 112.799C33.4384 114.183 32.5888 117.871 32.5888 117.871C32.5888 117.871 31.1787 116.601 30.627 118.703C30.0752 120.805 30.3117 122.163 30.3117 122.163C30.3117 122.163 29.0592 120.822 29.033 122.951C29.0067 125.071 29.6811 126.621 30.4343 127.129C31.1963 127.628 33.7362 129.441 33.7362 129.441L33.9113 127.497C33.9113 127.497 33.0705 124.265 33.9551 123.293C34.8397 122.329 35.5228 125.728 36.8278 124.931Z" fill="#20212C"/>
        <path d="M37.4843 123.932C37.4843 123.932 38.2375 127.882 38.5703 128.347C38.9031 128.82 42.6166 128.706 44.2457 128.863C46.2601 129.065 46.8644 130.353 46.8644 130.353C46.8644 130.353 46.9082 133.313 46.5929 134.443C46.1813 135.923 44.7011 137.675 41.3554 136.204C39.0345 135.179 37.0639 133.515 35.9866 132.201C35.4962 131.605 35.1984 130.878 35.1371 130.107L34.9619 128.119L35.8815 124.204L37.4843 123.932Z" fill="#20212C"/>
        <path d="M173.65 86.9685C173.65 79.6809 179.562 73.7686 186.849 73.7686C194.136 73.7686 200.048 79.6809 200.048 86.9685C200.048 94.256 194.136 100.168 186.849 100.168C179.562 100.168 173.65 94.256 173.65 86.9685Z" fill="white"/>
        <path d="M186.858 100.536C179.378 100.536 173.291 94.4489 173.291 86.9687C173.291 79.4884 179.378 73.4009 186.858 73.4009C194.337 73.4009 200.424 79.4884 200.424 86.9687C200.424 94.4489 194.337 100.536 186.858 100.536ZM186.858 74.1279C179.781 74.1279 174.027 79.8826 174.027 86.9599C174.027 94.0372 179.781 99.7919 186.858 99.7919C193.934 99.7919 199.688 94.046 199.688 86.9687C199.688 79.8913 193.934 74.1279 186.858 74.1279Z" fill="#0C5DF5"/>
        <path d="M186.569 94.3791C184.975 94.3966 183.608 94.1251 183.337 94.0637C182.768 93.9411 182.408 93.3805 182.531 92.82C182.654 92.2506 183.205 91.8915 183.775 92.0141C184.957 92.2681 188.338 92.6535 189.748 91.4448C190.046 91.1908 190.431 90.7353 190.378 89.693C190.308 88.4404 189.529 88.1163 187.05 87.7397C184.957 87.4156 181.787 86.9339 181.918 83.2989C181.953 82.2828 182.382 81.4157 183.153 80.785C185.369 78.9544 189.871 79.585 190.378 79.6638C190.948 79.7514 191.342 80.2857 191.254 80.8638C191.167 81.4419 190.624 81.8273 190.054 81.7397C188.495 81.5032 185.614 81.4682 184.484 82.4054C184.178 82.6594 184.029 82.9573 184.011 83.3777C183.959 84.9018 184.712 85.2521 187.366 85.6638C189.45 85.9879 192.314 86.4258 192.472 89.5879C192.568 91.4097 191.78 92.4784 191.105 93.0564C189.906 94.0725 188.128 94.3616 186.569 94.3791Z" fill="#436DF6"/>
        <path d="M186.902 97.0592C186.306 97.0592 185.842 96.5863 185.842 96.0082V93.3191C185.842 92.741 186.271 92.2505 186.893 92.268C187.471 92.268 187.944 92.741 187.944 93.3191V96.0082C187.944 96.5775 187.48 97.0505 186.902 97.0592Z" fill="#436DF6"/>
        <path d="M186.936 81.6343C186.34 81.6343 185.867 81.1613 185.876 80.5832L185.885 77.5263C185.885 76.9482 186.402 76.4665 186.936 76.4752C187.514 76.4752 187.987 76.9482 187.987 77.5263L187.978 80.5832C187.978 81.1613 187.514 81.6255 186.936 81.6343Z" fill="#436DF6"/>
    </g>
    <defs>
        <linearGradient id="paint0_linear_3694_7123" x1="132.792" y1="26.0966" x2="52.416" y2="85.7988" gradientUnits="userSpaceOnUse">
            <stop stop-color="#E4ECFB"/>
            <stop offset="1" stop-color="#A8C0EF"/>
        </linearGradient>
        <linearGradient id="paint1_linear_3694_7123" x1="-37.5509" y1="37.3751" x2="33.0032" y2="86.5443" gradientUnits="userSpaceOnUse">
            <stop stop-color="#E4ECFB"/>
            <stop offset="1" stop-color="#A8C0EF"/>
        </linearGradient>
        <linearGradient id="paint2_linear_3694_7123" x1="18.938" y1="9.33239" x2="141.811" y2="9.33239" gradientUnits="userSpaceOnUse">
            <stop stop-color="#E4ECFB"/>
            <stop offset="1" stop-color="#B4C7F6"/>
        </linearGradient>
        <clipPath id="clip0_3694_7123">
            <rect width="208" height="281.105" fill="white"/>
        </clipPath>
    </defs>
</svg>
