<svg width="28" height="28" viewBox="0 0 28 28" fill="none" xmlns="http://www.w3.org/2000/svg">
<path d="M22.7927 0H5.20734C2.3328 0.00333594 0.00333594 2.3328 0 5.20734V22.7927C0.00333594 25.6672 2.3328 27.9967 5.20734 28H22.7927C25.6672 27.9967 27.9967 25.6672 28 22.7927V5.20734C27.9967 2.3328 25.6672 0.00333594 22.7927 0ZM26.0671 5.20734V6.8956H21.1704L17.5082 1.93293H22.7927C24.6002 1.93495 26.065 3.39976 26.0671 5.20734ZM15.1059 1.93293L18.7681 6.8956H12.8941L9.23191 1.93293H15.1059ZM1.93293 5.20734C1.93495 3.39981 3.39976 1.93501 5.20734 1.93293H6.82965L10.4919 6.8956H1.93293V5.20734ZM22.7927 26.0671H5.20734C3.39981 26.065 1.93501 24.6002 1.93293 22.7927V8.82859H26.0671V22.7927C26.065 24.6002 24.6002 26.065 22.7927 26.0671Z" fill="#222222"/>
<path d="M19.1574 16.6105L11.5112 12.196C11.049 11.9292 10.4579 12.0875 10.191 12.5498C10.1062 12.6968 10.0615 12.8634 10.0615 13.0331V21.8621C10.0615 22.3959 10.4942 22.8286 11.028 22.8286C11.1976 22.8286 11.3643 22.784 11.5112 22.6991L19.1574 18.2846C19.6196 18.0177 19.778 17.4266 19.5111 16.9644C19.4263 16.8174 19.3043 16.6953 19.1574 16.6105ZM11.9945 20.1881V14.707L16.7412 17.4475L11.9945 20.1881Z" fill="#222222"/>
</svg>
